<svg xmlns="http://www.w3.org/2000/svg" width="167" height="56" viewBox="0 0 167 56"><path d="M45.154 48.688l2.169 2.188-4.53 4.496-4.612-4.526 2.137-2.158h4.836zm76.419 0l2.168 2.188-4.529 4.496-4.613-4.526 2.137-2.158h4.837zM.744 49.034l1.328 4.28 1.327-4.28h.607l-1.942 6.064-1.943-6.064h.623zm9.387 0l1.328 4.28 1.328-4.28h.606l-1.942 6.064-1.943-6.064h.623zm145.06-.244v6.065h-.566v-4.33l-1.992 2.822-2.007-2.83v4.338h-.55V48.79l2.565 3.616 2.55-3.616zm-79.869.244v5.82h-.567v-5.82h.567zm3.641 0v5.318h2.25v.502h-2.816v-5.82h.566zm5.406 0v5.318h2.25v.502h-2.816v-5.82h.566zm7.575 0v.503h-2.17v1.945h2.049v.503h-2.049v2.367h2.17v.502h-2.736v-5.82h2.736zm5.648 0l-2.395 5.318h2.45v.502H94.37l2.396-5.317h-2.274v-.503h3.1zm44.261-.243l2.153 6.063h-.606l-.446-1.264h-2.21l-.436 1.264h-.591l2.136-6.063zm5.147.243v5.82h-.566v-5.82H147zm14.002 0v.503h-2.17v1.945h2.047v.503h-2.047v2.367h2.17v.502h-2.736v-5.82h2.736zm5.646 0l-2.395 5.318h2.453v.502h-3.278l2.396-5.317h-2.275v-.503h3.1zm-159.607 0v5.82h-.567v-5.82h.567zm11.557 0v.503h-2.17v1.945h2.048v.503h-2.048v2.367h2.17v.502h-2.736v-5.82h2.736zm5.647 0l-2.395 5.318h2.452v.502h-3.278l2.396-5.317h-2.274v-.503h3.1zm39.755 0c1.15 0 1.91.632 1.91 1.516 0 .55-.3 1.005-.792 1.264.542.276.882.77.882 1.403 0 .989-.818 1.637-1.935 1.637h-.955v-5.82H64zm5.68 0c1.336 0 2.284.689 2.284 1.8 0 .973-.721 1.613-1.79 1.767l1.87 2.253h-.728l-1.958-2.383v2.383h-.567v-5.82h.89zM64 52.066h-.324v2.286h.389c.85 0 1.368-.47 1.368-1.143 0-.689-.543-1.143-1.433-1.143zm77.847-1.678l-.932 2.7h1.87l-.938-2.7zm-72.166-.852h-.323v2.595h.323c1.092 0 1.715-.519 1.715-1.298 0-.777-.623-1.297-1.715-1.297zm-5.68 0h-.325v2.027H64c.89 0 1.352-.445 1.352-1.013 0-.568-.462-1.014-1.352-1.014zM150.175.737c7.563 0 12.861 4.109 12.861 10.877 0 6.467-3.937 9.123-5.682 9.426l-1.183.123s1.563.401 2.324 1.458l8.152 14.107h-3.572c-3.084 0-4.441-.48-5.78-2.755L152 24.93c-.874-1.415-1.744-1.666-3.9-1.666h-3.84v13.464l-6.613-.012V.78zM88.499.76v5.729H70.036v9.047h17.25v5.953H69.958v9.422H88.5v5.78H63.385V.76h25.114zM29.376.819l.15.006V7.54H19.041c-6.713 0-12.156 4.529-12.156 11.237l.002-.059c0 6.708 5.442 11.238 12.154 11.238h10.483v6.715c-.048 0-.097.006-.149.006h-11.4C8.048 36.678 0 28.638 0 18.718l.002-.27C.18 8.682 8.158.818 17.975.818h11.401zm83.776-.052c10.046 0 18.228 8.06 18.228 17.956 0 9.896-8.182 17.955-18.228 17.955-10.047 0-18.23-8.06-18.23-17.955 0-9.897 8.183-17.956 18.23-17.956zM42.596.744v30.141h14.366v5.78H35.894V.745h6.702zm70.556 6.538c-6.401 0-11.616 5.137-11.616 11.441 0 6.307 5.215 11.4 11.616 11.4s11.572-5.093 11.572-11.4c0-6.304-5.171-11.44-11.572-11.44zm37.275-.89h-6.169v11.213h6.054c3.84 0 6.11-2.071 6.11-5.657 0-3.538-2.27-5.557-5.995-5.557z" fill="#002642" fill-rule="evenodd"/></svg>